External Loads File
version=1
nRows=54
nColumns=13
Range=5.000000e-03-10 seconds
endheader
time 	forceRightX 	forceRightY 	forceRightZ 	pointRightX 	pointRightY 	pointRightZ 	forceLeftX 	forceLeftY 	forceLeftZ 	pointLeftX 	pointLeftY 	pointLeftZ 		
0.005000 122.130457 136.285215 -0.000000 0.103307 0.232674 -0.145993 -8.737246 108.070623 -0.000000 0.365770 0.424362 -0.379639
0.010000 122.038158 135.710256 -0.000000 0.103291 0.232705 -0.145978 -7.061980 108.169589 -0.000000 0.365806 0.424343 -0.379634
0.015000 121.810011 135.282935 -0.000000 0.103286 0.232736 -0.145978 -5.622950 108.270708 -0.000000 0.365851 0.424325 -0.379643
0.020000 121.662909 134.833462 -0.000000 0.103059 0.232773 -0.145849 -4.363845 108.385089 -0.000000 0.366002 0.424369 -0.379730
0.025000 121.797849 134.187351 -0.000000 0.103012 0.232804 -0.145861 -3.093440 108.523744 -0.000000 0.365956 0.425132 -0.379698
0.030000 121.689085 133.822486 -0.000000 0.103017 0.232846 -0.145867 -2.145049 108.676424 -0.000000 0.366302 0.425100 -0.379733
0.035000 121.790609 133.328130 -0.000000 0.103021 0.232898 -0.145859 -1.058527 108.851554 -0.000000 0.366370 0.425071 -0.379724
0.040000 121.584690 133.178491 -0.000000 0.103013 0.232936 -0.145857 -0.182938 109.040607 -0.000000 0.366425 0.425094 -0.379734
0.045000 121.671596 132.819319 -0.000000 0.103011 0.232957 -0.145860 0.992513 109.229859 -0.000000 0.366476 0.425076 -0.379736
0.050000 121.667118 132.575135 -0.000000 0.103006 0.232975 -0.145855 2.131841 109.389955 -0.000000 0.366527 0.425076 -0.379739
0.055000 121.497469 132.478788 -0.000000 0.103011 0.232997 -0.145860 3.153253 109.508805 -0.000000 0.366565 0.425058 -0.379733
0.060000 121.214876 132.465184 -0.000000 0.103008 0.233003 -0.145877 4.051717 109.585598 -0.000000 0.366617 0.425069 -0.379734
0.065000 121.094336 132.285962 -0.000000 0.103003 0.233018 -0.145863 4.947175 109.603621 -0.000000 0.366659 0.425069 -0.379735
0.070000 120.947019 132.111712 -0.000000 0.103016 0.233025 -0.145859 5.582857 109.553183 -0.000000 0.366697 0.425081 -0.379744
0.075000 120.569534 132.110563 -0.000000 0.103013 0.233043 -0.145862 5.747977 109.431661 -0.000000 0.366752 0.425050 -0.379745
0.080000 120.372079 131.900352 -0.000000 0.103015 0.233049 -0.145857 5.761640 109.212991 -0.000000 0.366779 0.425073 -0.379744
0.085000 120.075354 131.759900 -0.000000 0.103027 0.233058 -0.145859 5.379997 108.909119 -0.000000 0.366821 0.425092 -0.379736
0.090000 119.665599 131.748399 -0.000000 0.103028 0.233058 -0.145861 4.602579 108.529589 -0.000000 0.366865 0.425085 -0.379742
0.095000 119.586447 131.520110 -0.000000 0.103022 0.233071 -0.145859 3.796975 108.069883 -0.000000 0.366874 0.425084 -0.379740
0.100000 119.318492 131.601709 -0.000000 0.103022 0.233083 -0.145864 2.537709 107.564923 -0.000000 0.366901 0.425103 -0.379742
0.105000 119.484507 131.455840 -0.000000 0.103034 0.233072 -0.145860 1.411685 107.043635 -0.000000 0.366932 0.425107 -0.379731
0.110000 119.768237 131.355723 -0.000000 0.103027 0.233087 -0.145864 0.306079 106.566120 -0.000000 0.366951 0.425096 -0.379733
0.115000 119.933294 131.479087 -0.000000 0.103023 0.233089 -0.145860 -0.842537 106.154595 -0.000000 0.366974 0.425115 -0.379733
0.120000 120.297622 131.502703 -0.000000 0.103016 0.233103 -0.145852 -1.691965 105.806407 -0.000000 0.367001 0.425085 -0.379738
0.125000 120.680936 131.561812 -0.000000 0.103008 0.233112 -0.145850 -2.322137 105.520003 -0.000000 0.367005 0.425096 -0.379730
0.130000 120.950974 131.737923 -0.000000 0.102990 0.233131 -0.145861 -2.801401 105.301927 -0.000000 0.367036 0.425089 -0.379723
0.135000 121.282856 131.831343 -0.000000 0.102994 0.233145 -0.145860 -2.971191 105.171149 -0.000000 0.367041 0.425066 -0.379724
0.140000 121.512376 131.970839 -0.000000 0.102974 0.233163 -0.145862 -2.941688 105.138522 -0.000000 0.367031 0.425066 -0.379726
0.145000 121.730437 132.054345 -0.000000 0.102951 0.233173 -0.145852 -2.645030 105.206513 -0.000000 0.367046 0.425058 -0.379733
0.150000 121.720908 132.259809 -0.000000 0.102941 0.233180 -0.145863 -2.294117 105.361884 -0.000000 0.367035 0.424998 -0.379723
0.155000 121.891842 132.208607 -0.000000 0.102925 0.233208 -0.145864 -1.612192 105.610103 -0.000000 0.367057 0.424998 -0.379714
0.160000 121.813716 132.321130 -0.000000 0.102908 0.233217 -0.145854 -1.009055 105.943531 -0.000000 0.367051 0.424968 -0.379702
0.165000 121.771927 132.367690 -0.000000 0.102892 0.233240 -0.145865 -0.347235 106.349601 -0.000000 0.367039 0.424956 -0.379717
0.170000 121.685243 132.450234 -0.000000 0.102875 0.233269 -0.145868 0.242899 106.803924 -0.000000 0.367022 0.424926 -0.379714
0.175000 121.621644 132.542008 -0.000000 0.102869 0.233277 -0.145867 0.785050 107.285902 -0.000000 0.367030 0.424850 -0.379717
0.180000 121.707302 132.579900 -0.000000 0.102841 0.233304 -0.145874 1.366620 107.776914 -0.000000 0.367010 0.424798 -0.379709
0.185000 121.857982 132.673688 -0.000000 0.102832 0.233321 -0.145859 1.948165 108.268297 -0.000000 0.367011 0.424790 -0.379709
0.190000 121.816613 133.044964 -0.000000 0.102828 0.233348 -0.145869 2.380494 108.759559 -0.000000 0.367004 0.424759 -0.379713
0.195000 121.979786 133.297178 -0.000000 0.102814 0.233364 -0.145864 3.015756 109.227082 -0.000000 0.366999 0.424722 -0.379705
0.200000 122.492252 133.273248 -0.000000 0.102796 0.233389 -0.145859 3.958444 109.635519 -0.000000 0.367001 0.424680 -0.379734
0.205000 122.572275 133.666412 -0.000000 0.102778 0.233385 -0.145837 4.525474 109.978593 -0.000000 0.367018 0.424661 -0.379756
0.210000 122.958626 133.762555 -0.000000 0.102768 0.233419 -0.145854 5.272797 110.214476 -0.000000 0.367041 0.424612 -0.379783
0.215000 123.202202 133.927665 -0.000000 0.102763 0.233422 -0.145844 5.813063 110.352670 -0.000000 0.367071 0.424600 -0.379817
0.220000 123.372551 134.059090 -0.000000 0.102754 0.233460 -0.145845 6.221695 110.394406 -0.000000 0.366560 0.423522 -0.379541
0.225000 123.352783 134.248025 -0.000000 0.102744 0.233479 -0.145842 6.398687 110.344337 -0.000000 0.366564 0.423485 -0.379545
0.230000 123.398076 134.259622 -0.000000 0.102731 0.233483 -0.145841 6.524803 110.187630 -0.000000 0.366572 0.423474 -0.379549
0.235000 123.350457 134.237209 -0.000000 0.102729 0.233510 -0.145841 6.451572 109.935229 -0.000000 0.366569 0.423440 -0.379548
0.240000 123.156941 134.225918 -0.000000 0.102719 0.233519 -0.145832 6.125211 109.597994 -0.000000 0.366583 0.423424 -0.379541
0.245000 123.041587 134.038183 -0.000000 0.102722 0.233526 -0.145836 5.729208 109.185207 -0.000000 0.366585 0.423407 -0.379555
0.250000 122.580544 134.111122 -0.000000 0.102715 0.233571 -0.145826 4.932212 108.746791 -0.000000 0.366591 0.423380 -0.379554
0.255000 122.378480 133.948805 -0.000000 0.102709 0.233589 -0.145822 4.212762 108.282921 -0.000000 0.366599 0.423363 -0.379557
0.260000 121.897721 134.092290 -0.000000 0.102717 0.233605 -0.145827 3.103596 107.821597 -0.000000 0.366609 0.423348 -0.379544
0.265000 121.777759 133.999470 -0.000000 0.102700 0.233628 -0.145829 2.131120 107.359030 -0.000000 0.366613 0.423319 -0.379570
0.270000 121.585143 134.104277 -0.000000 0.102693 0.233632 -0.145827 0.991365 106.922815 -0.000000 0.366627 0.423315 -0.379481
